<?xml version="1.0" encoding="UTF-8" standalone="no"?>
<!-- Generator: Adobe Illustrator 17.1.0, SVG Export Plug-In . SVG Version: 6.00 Build 0)  -->

<svg
   xmlns:dc="http://purl.org/dc/elements/1.1/"
   xmlns:cc="http://creativecommons.org/ns#"
   xmlns:rdf="http://www.w3.org/1999/02/22-rdf-syntax-ns#"
   xmlns:svg="http://www.w3.org/2000/svg"
   xmlns="http://www.w3.org/2000/svg"
   xmlns:sodipodi="http://sodipodi.sourceforge.net/DTD/sodipodi-0.dtd"
   xmlns:inkscape="http://www.inkscape.org/namespaces/inkscape"
   version="1.1"
   id="Layer_1"
   x="0px"
   y="0px"
   viewBox="0 0 1920.0001 1080"
   enable-background="new 0 0 323.141 322.95"
   xml:space="preserve"
   sodipodi:docname="slides.svg"
   width="1920"
   height="1080"
   inkscape:version="0.92.3 (unknown)"><metadata
   id="metadata2369"><rdf:RDF><cc:Work
       rdf:about=""><dc:format>image/svg+xml</dc:format><dc:type
         rdf:resource="http://purl.org/dc/dcmitype/StillImage" /><dc:title></dc:title></cc:Work></rdf:RDF></metadata><defs
   id="defs2367"><polygon
     points=".06 .109 428.348 .109 428.348 324 .06 324"
     id="whlogo-a" /><style
     id="style6852">.cls-1{fill:#fff;}.cls-2{fill:#004c73;}.cls-3{fill:#004c6d;}.cls-4{fill:none;}</style></defs><sodipodi:namedview
   pagecolor="#ffffff"
   bordercolor="#666666"
   borderopacity="1"
   objecttolerance="10"
   gridtolerance="10"
   guidetolerance="10"
   inkscape:pageopacity="0"
   inkscape:pageshadow="2"
   inkscape:window-width="2556"
   inkscape:window-height="1405"
   id="namedview2365"
   showgrid="false"
   inkscape:zoom="0.5"
   inkscape:cx="724.32797"
   inkscape:cy="587.2997"
   inkscape:window-x="0"
   inkscape:window-y="16"
   inkscape:window-maximized="0"
   inkscape:current-layer="Layer_1" />

<g
   id="g2362"
   transform="matrix(3.3405712,0,0,3.3405712,0,1.21824e-5)">
  <polygon
   points="161.649,152.782 231.514,82.916 91.783,82.916 "
   id="polygon2348"
   style="fill:#f0ad00" />

  <polygon
   points="8.867,0 79.241,70.375 232.213,70.375 161.838,0 "
   id="polygon2350"
   style="fill:#7fd13b" />

  <rect
   x="192.99001"
   y="107.392"
   transform="matrix(0.7071,0.7071,-0.7071,0.7071,186.4727,-127.2386)"
   width="107.676"
   height="108.167"
   id="rect2352"
   style="fill:#7fd13b" />

  <polygon
   points="323.298,143.724 323.298,0 179.573,0 "
   id="polygon2354"
   style="fill:#60b5cc" />

  <polygon
   points="152.781,161.649 0,8.868 0,314.432 "
   id="polygon2356"
   style="fill:#5a6378" />

  <polygon
   points="255.522,246.655 323.298,314.432 323.298,178.879 "
   id="polygon2358"
   style="fill:#f0ad00" />

  <polygon
   points="161.649,170.517 8.869,323.298 314.43,323.298 "
   id="polygon2360"
   style="fill:#60b5cc" />
</g><text
   xml:space="preserve"
   style="font-style:normal;font-variant:normal;font-weight:normal;font-stretch:normal;font-size:64px;line-height:1.25;font-family:'Courier New';-inkscape-font-specification:'Courier New';font-variant-ligatures:normal;font-variant-caps:normal;font-variant-numeric:normal;font-feature-settings:normal;text-align:start;letter-spacing:0px;word-spacing:0px;writing-mode:lr;text-anchor:start;fill:#000000;fill-opacity:1;stroke:none;"
   x="1338.1189"
   y="194.528"
   id="text6620"><tspan
     sodipodi:role="line"
     x="1338.1189"
     y="194.528"
     id="tspan6622">Elm Meetup</tspan></text>

<text
   xml:space="preserve"
   style="font-style:normal;font-variant:normal;font-weight:normal;font-stretch:normal;font-size:32px;line-height:1.25;font-family:'Courier New';-inkscape-font-specification:'Courier New, Normal';font-variant-ligatures:normal;font-variant-caps:normal;font-variant-numeric:normal;font-feature-settings:normal;text-align:start;letter-spacing:0px;word-spacing:0px;writing-mode:lr;text-anchor:start;fill:#000000;fill-opacity:1;stroke:none;"
   x="1396.4229"
   y="249.6875"
   id="text6632"><tspan
     sodipodi:role="line"
     id="tspan6630"
     x="1396.4229"
     y="249.6875">Aug 21st 2018</tspan></text>

<text
   xml:space="preserve"
   style="font-style:normal;font-variant:normal;font-weight:normal;font-stretch:normal;font-size:48px;line-height:1.25;font-family:'Courier New';-inkscape-font-specification:'Courier New, Normal';font-variant-ligatures:normal;font-variant-caps:normal;font-variant-numeric:normal;font-feature-settings:normal;text-align:start;letter-spacing:0px;word-spacing:0px;writing-mode:lr;text-anchor:start;fill:#000000;fill-opacity:1;stroke:none;"
   x="1429.1669"
   y="409.4682"
   id="text6648"><tspan
     sodipodi:role="line"
     id="tspan6646"
     x="1429.1669"
     y="409.4682">Agenda</tspan><tspan
     sodipodi:role="line"
     x="1429.1669"
     y="469.4682"
     id="tspan6650" /></text>

<text
   xml:space="preserve"
   style="font-style:normal;font-variant:normal;font-weight:normal;font-stretch:normal;font-size:32px;line-height:1.25;font-family:'Courier New';-inkscape-font-specification:'Courier New, Normal';font-variant-ligatures:normal;font-variant-caps:normal;font-variant-numeric:normal;font-feature-settings:normal;text-align:start;letter-spacing:0px;word-spacing:0px;writing-mode:lr-tb;text-anchor:start;fill:#000000;fill-opacity:1;stroke:none"
   x="1186.4149"
   y="476.91211"
   id="text6654"><tspan
     sodipodi:role="line"
     id="tspan6652"
     x="1186.4149"
     y="476.91211">18:00 Pizza + Beer</tspan><tspan
     sodipodi:role="line"
     x="1186.4149"
     y="516.91211"
     id="tspan7729">18:40 WebGL Basics (xarvh)</tspan><tspan
     sodipodi:role="line"
     x="1186.4149"
     y="556.91211"
     id="tspan6656">19:00 Coding session</tspan><tspan
     sodipodi:role="line"
     x="1186.4149"
     y="596.91211"
     id="tspan6658">20:00 Round-up</tspan><tspan
     sodipodi:role="line"
     x="1186.4149"
     y="636.91211"
     id="tspan6660">21:00 Go home</tspan></text>

<g
   id="g6923"
   transform="matrix(0.67412057,0,0,0.67412057,1356.7406,717.20705)"><g
     data-name="Layer 2"
     id="Layer_2" /><g
     data-name="Layer 10"
     id="Layer_10"><path
       id="path6861"
       transform="translate(-268.11,-78.48)"
       d="m 425.42,380.43 c 0,-2.5 -0.62,-3.13 -5.94,-3.13 h -6.1 v 6.7 h 7.2 c 3.91,0 4.84,-0.44 4.84,-3.57 z"
       class="cls-2"
       inkscape:connector-curvature="0"
       style="fill:#004c73" /><path
       id="path6863"
       transform="translate(-268.11,-78.48)"
       d="m 460.93,380.43 c 0,-2.5 -0.63,-3.13 -5.94,-3.13 h -6.1 v 6.7 h 7.19 c 3.92,0 4.85,-0.44 4.85,-3.57 z"
       class="cls-2"
       inkscape:connector-curvature="0"
       style="fill:#004c73" /><path
       id="path6865"
       transform="translate(-268.11,-78.48)"
       d="m 420.58,389.5 h -7 v 8.13 h 5.78 c 5.79,0 7,-0.31 7,-3.91 0,-3.72 -1.09,-4.22 -5.78,-4.22 z"
       class="cls-2"
       inkscape:connector-curvature="0"
       style="fill:#004c73" /><path
       id="path6867"
       transform="translate(-268.11,-78.48)"
       d="m 455.92,389.5 h -7 v 8.13 h 5.78 c 5.79,0 7,-0.31 7,-3.91 0.01,-3.72 -1.08,-4.22 -5.78,-4.22 z"
       class="cls-2"
       inkscape:connector-curvature="0"
       style="fill:#004c73" /><path
       id="path6869"
       transform="translate(-268.11,-78.48)"
       d="m 352.37,238.87 54.21,-103.38 h 23 l 15.18,103.38 h 0.9 l 59.69,-104.19 h 59.13 l -13.54,80.48 h 65.31 L 629.38,137 a 214.12,214.12 0 0 0 -292.9,-1.2 l 15,103.07 z"
       class="cls-3"
       inkscape:connector-curvature="0"
       style="fill:#004c6d" /><path
       id="path6871"
       transform="translate(-268.11,-78.48)"
       d="m 468.28,394 c 0,-3.29 -0.94,-6.1 -4.69,-7.67 1.41,-0.62 3.6,-1.56 3.6,-6.25 0,-5.79 -3.29,-8 -9.39,-8 H 442.63 V 403 h 14.86 c 8.44,0 10.79,-3.8 10.79,-9 z"
       class="cls-4"
       inkscape:connector-curvature="0"
       style="fill:none" /><path
       id="path6873"
       transform="translate(-268.11,-78.48)"
       d="m 526,403.73 c 7.19,0 12,-1.56 12,-11.1 V 372.3 h -6.41 v 16.58 c 0,8 -0.63,9.54 -6,9.54 -5.78,0 -6.1,-2 -6.1,-9.86 v -16.42 h -6.25 v 20.33 c 0.09,9.39 5.09,11.26 12.76,11.26 z"
       class="cls-4"
       inkscape:connector-curvature="0"
       style="fill:none" /><polygon
       id="polygon6875"
       points="234.58,293.65 228.17,293.65 228.17,305.54 216.12,305.54 216.12,293.65 209.71,293.65 209.71,324.47 216.12,324.47 216.12,310.86 228.17,310.86 228.17,324.47 234.58,324.47 "
       class="cls-4"
       style="fill:none" /><polygon
       id="polygon6877"
       points="106.17,324.47 129.63,324.47 129.63,319.15 112.58,319.15 112.58,310.86 127.75,310.86 127.75,305.54 112.58,305.54 112.58,298.82 129,298.82 129,293.65 106.17,293.65 "
       class="cls-4"
       style="fill:none" /><path
       id="path6879"
       transform="translate(-268.11,-78.48)"
       d="m 354.88,394.35 -5,-22.21 h -7 l -4.69,22.05 a 185.24,185.24 0 0 1 -4.85,-22.05 h -6.73 a 251.23,251.23 0 0 0 8.25,30.86 h 6.73 l 4.85,-22.36 4.85,22.36 H 358 a 256.77,256.77 0 0 0 8.29,-30.81 h -6.41 a 168.24,168.24 0 0 1 -5,22.16 z"
       class="cls-4"
       inkscape:connector-curvature="0"
       style="fill:none" /><path
       id="path6881"
       transform="translate(-268.11,-78.48)"
       d="m 432.93,394 c 0,-3.29 -0.94,-6.1 -4.69,-7.67 1.41,-0.62 3.6,-1.56 3.6,-6.25 0,-5.79 -3.29,-8 -9.39,-8 H 407.28 V 403 h 14.86 c 8.45,0 10.79,-3.8 10.79,-9 z"
       class="cls-4"
       inkscape:connector-curvature="0"
       style="fill:none" /><polygon
       id="polygon6883"
       points="353.29,298.97 353.29,324.47 353.45,324.47 359.86,324.47 359.86,298.97 369.09,298.97 369.09,293.65 344.07,293.65 344.07,298.97 "
       class="cls-4"
       style="fill:none" /><path
       id="path6885"
       transform="translate(-268.11,-78.48)"
       d="m 564.32,385 -6.89,-1.87 c -1.87,-0.47 -3.12,-1.1 -3.12,-3.29 0,-2.5 1.56,-3.12 4.84,-3.12 5.48,0 5.63,1.72 6,4.22 h 6.41 c -0.16,-5.48 -3,-9.7 -12,-9.7 -9.54,0 -11.58,4.69 -11.58,9.07 0,5.63 3.29,7.51 7,8.45 l 7.51,2 c 2.66,0.78 3.6,1.72 3.6,3.6 0,3.13 -2.35,3.6 -5.63,3.6 -6.1,0 -6.57,-1.72 -6.89,-5 l -6.25,0.31 c 0.31,6.42 3.13,10.33 13.14,10.33 4.53,0 12,-0.78 12,-9.54 -0.01,-6.12 -3.77,-7.84 -8.14,-9.06 z"
       class="cls-4"
       inkscape:connector-curvature="0"
       style="fill:none" /><polygon
       id="polygon6887"
       points="337.03,319.15 319.98,319.15 319.98,310.86 335.15,310.86 335.15,305.54 319.98,305.54 319.98,298.82 336.4,298.82 336.4,293.65 313.57,293.65 313.57,324.47 337.03,324.47 "
       class="cls-4"
       style="fill:none" /><path
       id="path6889"
       transform="translate(-268.11,-78.48)"
       d="m 444.89,440.17 a 4.73,4.73 0 1 0 9.43,0 4.73,4.73 0 1 0 -9.43,0 z"
       class="cls-2"
       inkscape:connector-curvature="0"
       style="fill:#004c73" /><path
       id="path6891"
       transform="translate(-268.11,-78.48)"
       d="m 526.9,435.05 c -1.12,0 -2.3,0 -3.43,0 v 4.64 h 3.43 c 2.61,0 2.74,-4.62 0,-4.64 z"
       class="cls-2"
       inkscape:connector-curvature="0"
       style="fill:#004c73" /><path
       id="path6893"
       transform="translate(-268.11,-78.48)"
       d="m 666.24,182.94 -28.54,157 h -45.25 l 15,-78.39 h -65.33 l -15,78.39 h -45.23 l 18.9,-104 -56.3,104 H 416.84 L 402,239.1 h -0.91 l -52.88,100.83 h -26.36 l -27,-151 a 213.12,213.12 0 0 0 -26.75,103.7 c 0,118.28 95.89,214.17 214.17,214.17 118.28,0 214.18,-95.89 214.18,-214.17 A 213.07,213.07 0 0 0 666.24,182.94 Z m -152.91,189.2 h 6.25 v 16.42 c 0,7.82 0.32,9.86 6.1,9.86 5.32,0 6,-1.57 6,-9.54 V 372.3 H 538 v 20.33 c 0,9.54 -4.85,11.1 -12,11.1 -7.67,0 -12.67,-1.87 -12.67,-11.26 z m -70.7,0 h 15.17 c 6.1,0 9.39,2.19 9.39,8 0,4.69 -2.19,5.63 -3.6,6.25 3.75,1.57 4.69,4.38 4.69,7.67 0,5.16 -2.35,8.91 -10.79,8.91 H 442.63 Z M 358,403 h -6.72 l -4.85,-22.36 -4.84,22.36 h -6.73 a 251.23,251.23 0 0 1 -8.29,-30.81 h 6.73 a 185.24,185.24 0 0 0 4.85,22.05 l 4.69,-22.05 h 7 l 5,22.21 a 168.24,168.24 0 0 0 5,-22.21 h 6.41 A 256.77,256.77 0 0 1 358,403 Z m 16.27,-30.81 h 22.83 v 5.16 H 380.69 V 384 h 15.17 v 5.31 h -15.17 v 8.29 h 17.05 v 5.4 h -23.46 z m 31.91,77.4 h -12 v -18.84 h 11.73 v 4.3 H 399 v 2.65 h 6.39 V 442 H 399 v 3.3 h 7.2 z m 1.09,-77.4 h 15.17 c 6.1,0 9.39,2.19 9.39,8 0,4.69 -2.19,5.63 -3.6,6.25 3.75,1.57 4.69,4.38 4.69,7.67 0,5.16 -2.34,8.91 -10.79,8.91 h -14.85 z m 11.47,69.34 h -10.57 v -4.24 h 10.58 z m 11.38,8.25 c -4.78,0 -9.61,-3.19 -9.64,-9.58 -0.03,-6.39 4.86,-9.62 9.64,-9.62 3.89,0 8.11,2.13 8.83,7.15 h -4.72 a 4,4 0 0 0 -4.11,-2.77 c -2.82,0 -4.67,2.12 -4.67,5.24 0,2.76 1.82,5.18 4.67,5.2 a 4,4 0 0 0 4.19,-3 H 439 c -0.65,5.24 -4.87,7.33 -8.87,7.33 z m 9.82,-9.56 c 0,-13 19.28,-13 19.28,0 0,13 -19.22,12.97 -19.22,-0.05 z m 39.6,9.37 h -4.91 v -8.37 l -4,4.18 h -0.54 l -4,-4.18 v 8.37 h -4.91 V 430.7 H 463 l 7.35,8.16 7.49,-8.16 h 1.72 z m 21.48,0 h -4.91 v -8.37 l -4,4.18 h -0.54 l -4,-4.18 v 8.37 h -4.91 V 430.7 h 1.77 l 7.36,8.16 7.49,-8.16 H 501 Z M 502.69,403 h -6.41 v -13.66 h -12 V 403 h -6.41 v -30.86 h 6.41 V 384 h 12 v -11.86 h 6.41 z m 13.48,46.59 h -12 v -18.84 h 11.74 v 4.3 h -7 v 2.65 h 6.39 V 442 H 509 v 3.3 h 7.2 z m 18.39,0 h -5.37 L 526,444 h -2.5 v 5.53 h -4.81 v -18.78 h 8.24 c 7.39,0 8.73,8.91 4,12.13 l 3.68,6 z m 9.79,0.19 c -4.77,0 -9.61,-3.19 -9.63,-9.58 -0.02,-6.39 4.86,-9.62 9.63,-9.62 3.9,0 8.11,2.13 8.84,7.15 h -4.73 a 3.94,3.94 0 0 0 -4.11,-2.77 c -2.81,0 -4.67,2.12 -4.67,5.24 0,2.76 1.83,5.18 4.67,5.2 a 4,4 0 0 0 4.19,-3 h 4.73 c -0.7,5.24 -4.92,7.33 -8.92,7.33 z m 23,-0.19 h -12 v -18.84 h 11.73 v 4.3 h -6.95 v 2.65 h 6.39 v 4.3 h -6.39 v 3.3 h 7.2 z m -6.9,-46 c -10,0 -12.83,-3.91 -13.14,-10.33 l 6.25,-0.31 c 0.32,3.29 0.79,5 6.89,5 3.28,0 5.63,-0.47 5.63,-3.6 0,-1.88 -0.94,-2.82 -3.6,-3.6 l -7.51,-2 c -3.75,-0.94 -7,-2.82 -7,-8.45 0,-4.38 2,-9.07 11.58,-9.07 9.07,0 11.88,4.22 12,9.7 h -6.45 c -0.32,-2.5 -0.47,-4.22 -6,-4.22 -3.28,0 -4.84,0.62 -4.84,3.12 0,2.19 1.25,2.82 3.12,3.29 l 6.89,1.87 c 4.37,1.26 8.13,3 8.13,9.08 0.05,8.73 -7.46,9.51 -11.99,9.51 z m 44.73,-0.63 h -23.5 v -30.82 h 22.83 v 5.16 h -16.42 v 6.7 h 15.17 v 5.31 h -15.17 v 8.29 h 17 z m 32.06,-25.49 H 628 V 403 h -6.6 v -25.54 h -9.22 v -5.32 h 25 z"
       class="cls-2"
       inkscape:connector-curvature="0"
       style="fill:#004c73" /></g></g>










</svg>